<svg xmlns="http://www.w3.org/2000/svg" viewBox="0 0 360 520" role="img" aria-labelledby="title">
  <title id="title">Illustrated gelato cone</title>
  <defs>
    <pattern id="grid" width="28" height="28" patternUnits="userSpaceOnUse" patternTransform="rotate(45)">
      <path d="M0 0V28M14 0V28" stroke="#8f4d22" stroke-width="2" opacity=".34"/>
    </pattern>
    <filter id="shadow" x="-40%" y="-30%" width="180%" height="180%">
      <feDropShadow dx="0" dy="18" stdDeviation="16" flood-color="#5e1a15" flood-opacity=".18"/>
    </filter>
  </defs>
  <g filter="url(#shadow)">
    <path d="M92 216h176L183 486c-3 10-17 10-20 0L92 216Z" fill="#d9953d"/>
    <path d="M92 216h176L183 486c-3 10-17 10-20 0L92 216Z" fill="url(#grid)"/>
    <path d="M112 227c13 30 122 30 136 0" fill="none" stroke="#7e441f" stroke-width="7" opacity=".33"/>
    <circle cx="129" cy="194" r="93" fill="#f6b9c8"/>
    <circle cx="225" cy="190" r="94" fill="#fff4d5"/>
    <circle cx="182" cy="113" r="96" fill="#6f3b2a"/>
    <path d="M112 118c18-34 47-52 84-54 30-1 58 10 82 35-24-11-48-14-72-8-26 7-49 23-69 48l-25-21Z" fill="#8a4f3b" opacity=".58"/>
    <path d="M69 197c26-22 54-29 85-22 20 4 37 15 52 31-32-13-63-12-95 4l-42-13Z" fill="#e99aae" opacity=".6"/>
    <path d="M163 197c32-20 63-23 94-9 18 8 32 20 42 38-32-18-64-21-98-8l-38-21Z" fill="#f7e7b3" opacity=".76"/>
    <circle cx="184" cy="106" r="14" fill="#fec30d"/>
  </g>
</svg>